<?xml version="1.0" standalone="no"?>
<!DOCTYPE svg PUBLIC "-//W3C//DTD SVG 20010904//EN"
 "http://www.w3.org/TR/2001/REC-SVG-20010904/DTD/svg10.dtd">
<svg version="1.0" xmlns="http://www.w3.org/2000/svg"
 width="512.000000pt" height="512.000000pt" viewBox="0 0 512.000000 512.000000"
 preserveAspectRatio="xMidYMid meet">
<metadata>
Created by potrace 1.14, written by Peter Selinger 2001-2017
</metadata>
<g transform="translate(0.000000,512.000000) scale(0.100000,-0.100000)"
fill="#000000" stroke="none">
<path d="M0 2560 l0 -2560 2560 0 2560 0 0 2560 0 2560 -2560 0 -2560 0 0
-2560z m1238 1033 c39 -153 176 -693 304 -1200 128 -507 234 -920 237 -918 2
3 137 541 300 1197 l297 1193 199 0 200 0 300 -1210 c166 -665 304 -1205 307
-1200 3 6 140 551 304 1213 l298 1202 192 0 192 0 -19 -72 c-11 -40 -181 -694
-378 -1453 l-358 -1380 -220 -3 -220 -2 -80 312 c-44 172 -180 712 -304 1200
-139 551 -227 881 -231 870 -7 -17 -588 -2364 -588 -2376 0 -4 -98 -5 -217 -4
l-217 3 -383 1445 c-210 795 -382 1448 -383 1453 0 4 89 7 199 7 l198 0 71
-277z"/>
</g>
</svg>
